<?xml version="1.0" encoding="UTF-8"?>
<svg width="225px" height="69px" viewBox="0 0 225 69" version="1.1" xmlns="http://www.w3.org/2000/svg" xmlns:xlink="http://www.w3.org/1999/xlink">
    <!-- Generator: Sketch 50.2 (55047) - http://www.bohemiancoding.com/sketch -->
    <title>GFM Logo</title>
    <desc>Created with Sketch.</desc>
    <defs>
        <polygon id="path-1" points="0 69 225 69 225 0 0 0"></polygon>
    </defs>
    <g id="Page-1" stroke="none" stroke-width="1" fill="none" fill-rule="evenodd">
        <g id="GFM_Home" transform="translate(-95.000000, -24.000000)">
            <g id="GFM-Logo" transform="translate(95.000000, 24.000000)">
                <path d="M90.3769231,16 C94.7591811,16 97.3593052,18.1491239 98.6605459,20.5163746 L93.8539702,22.9111782 C93.2316377,21.7838066 91.98933,20.9021148 90.3769231,20.9021148 C87.6330025,20.9021148 85.7966501,22.9387311 85.7966501,25.501148 C85.7966501,28.0612689 87.6330025,30.1001813 90.3769231,30.1001813 C91.5933002,30.1001813 92.7224566,29.7948036 93.4579404,29.2735952 L93.4579404,28.4745619 L89.8111663,28.4745619 L89.8111663,23.9030816 L99,23.9030816 L99,31.2826586 C96.9066998,33.541994 94.080273,35 90.3769231,35 C84.6651365,35 80,31.3653172 80,25.501148 C80,19.6071299 84.6651365,16 90.3769231,16" id="Fill-1" fill="#FEFEFE"></path>
                <path d="M110.887149,27.9861842 C110.887149,26.5217105 110.032704,25.3911184 108.48503,25.3911184 C106.967296,25.3911184 106.110548,26.5217105 106.110548,27.9861842 C106.110548,29.4759868 106.967296,30.6088816 108.48503,30.6088816 C110.032704,30.6088816 110.887149,29.4759868 110.887149,27.9861842 M101,27.9861842 C101,24.2582237 103.7614,21 108.48503,21 C113.236297,21 116,24.2582237 116,27.9861842 C116,31.7141447 113.236297,35 108.48503,35 C103.7614,35 101,31.7141447 101,27.9861842" id="Fill-3" fill="#FEFEFE"></path>
                <path d="M126.887149,27.9861842 C126.887149,26.5217105 126.032704,25.3911184 124.48503,25.3911184 C122.967296,25.3911184 122.110548,26.5217105 122.110548,27.9861842 C122.110548,29.4759868 122.967296,30.6088816 124.48503,30.6088816 C126.032704,30.6088816 126.887149,29.4759868 126.887149,27.9861842 M117,27.9861842 C117,24.2582237 119.7614,21 124.48503,21 C129.236297,21 132,24.2582237 132,27.9861842 C132,31.7141447 129.236297,35 124.48503,35 C119.7614,35 117,31.7141447 117,27.9861842" id="Fill-5" fill="#FEFEFE"></path>
                <path d="M142.895981,26.1579077 C142.413712,25.5699902 141.451537,25.2620334 140.770686,25.2620334 C139.380615,25.2620334 138.217494,26.2138998 138.217494,27.893664 C138.217494,29.5710953 139.380615,30.5509578 140.770686,30.5509578 C141.451537,30.5509578 142.413712,30.2150049 142.895981,29.6270874 L142.895981,26.1579077 Z M142.895981,33.2362475 C141.732861,34.5240668 140.427896,35 139.040189,35 C135.723404,35 133,32.5363458 133,27.893664 C133,23.4166257 135.664303,20.8129912 139.040189,20.8129912 C140.427896,20.8129912 141.817967,21.2889244 142.895981,22.5767436 L142.895981,16 L148,16 L148,34.6640472 L142.895981,34.6640472 L142.895981,33.2362475 Z" id="Fill-7" fill="#FEFEFE"></path>
                <polygon id="Fill-9" fill="#FEFEFE" points="159 16 173 16 173 20.785625 164.59031 20.785625 164.59031 23.00625 172.808504 23.00625 172.808504 27.791875 164.59031 27.791875 164.59031 35 159 35"></polygon>
                <path d="M182.879322,30.3057063 C182.535254,29.8360467 181.652542,29.5874034 180.857627,29.5874034 C180.00339,29.5874034 179.066102,29.8636737 179.066102,30.6924848 C179.066102,31.5212958 180.00339,31.7699392 180.857627,31.7699392 C181.652542,31.7699392 182.535254,31.5212958 182.879322,31.0516362 L182.879322,30.3057063 Z M182.879322,33.397632 C182.110508,34.3369512 180.430508,35 178.722034,35 C176.674237,35 174,33.6462753 174,30.6096037 C174,27.2966617 176.674237,26.4954777 178.722034,26.4954777 C180.515932,26.4954777 182.138983,27.0480184 182.879322,27.9574083 L182.879322,26.4402236 C182.879322,25.5009045 181.99661,24.7849038 180.31661,24.7849038 C179.037627,24.7849038 177.585424,25.2798882 176.50339,26.0810722 L174.766441,23.0167736 C176.617288,21.5801677 179.177627,21 181.253898,21 C184.670847,21 188,22.1603355 188,26.6059859 L188,34.6684756 L182.879322,34.6684756 L182.879322,33.397632 Z" id="Fill-11" fill="#FEFEFE"></path>
                <mask id="mask-2" fill="white">
                    <use xlink:href="#path-1"></use>
                </mask>
                <g id="Clip-14"></g>
                <path d="M190.326868,35 L195.673132,35 L195.673132,21.1993193 L190.326868,21.1993193 L190.326868,35 Z M190,16.8849688 C190,15.2864436 191.337185,14 192.998762,14 C194.662815,14 196,15.2864436 196,16.8849688 C196,18.4858763 194.662815,19.7699376 192.998762,19.7699376 C191.337185,19.7699376 190,18.4858763 190,16.8849688 Z" id="Fill-13" fill="#FEFEFE" mask="url(#mask-2)"></path>
                <path d="M199.173125,30.6364362 L199.173125,25.2675532 L197,25.2675532 L197,20.7890957 L199.173125,20.7890957 L199.173125,17 L204.065488,17 L204.065488,20.7890957 L206.730342,20.7890957 L206.730342,25.2675532 L204.065488,25.2675532 L204.065488,29.1428191 C204.065488,29.8609043 204.502833,30.4353723 205.153184,30.4353723 C205.588262,30.4353723 206.021074,30.2917553 206.129844,30.1768617 L207,34.0808511 C206.485611,34.5691489 205.34353,35 203.684795,35 C200.777476,35 199.173125,33.5351064 199.173125,30.6364362" id="Fill-15" fill="#FEFEFE" mask="url(#mask-2)"></path>
                <path d="M218.029436,27.3372922 C218.029436,25.912114 217.285808,25.4275534 216.097846,25.4275534 C214.965137,25.4275534 214.38497,26.0261283 213.970564,26.5106888 L213.970564,35 L209,35 L209,16 L213.970564,16 L213.970564,22.807601 C214.744121,21.8954869 216.208354,20.9002375 218.556652,20.9002375 C221.646275,20.9002375 223,22.7790974 223,25.1710214 L223,35 L218.029436,35 L218.029436,27.3372922 Z" id="Fill-16" fill="#FEFEFE" mask="url(#mask-2)"></path>
                <polygon id="Fill-17" fill="#FEFEFE" mask="url(#mask-2)" points="91.6031014 44.8457436 87.7789187 54 87.2049455 54 83.3968986 44.8457436 83.3968986 54 82 54 82 43 84.0054484 43 87.4907795 51.3780513 90.9968567 43 93 43 93 54 91.6031014 54"></polygon>
                <path d="M101.007482,50.3378462 L105.973707,50.3378462 L103.5,44.2207179 L101.007482,50.3378462 Z M106.404019,51.5585641 L100.595981,51.5585641 L99.5825139,54 L98,54 L102.606456,43 L104.377084,43 L109,54 L107.419838,54 L106.404019,51.5585641 Z" id="Fill-18" fill="#FEFEFE" mask="url(#mask-2)"></path>
                <polygon id="Fill-19" fill="#FEFEFE" mask="url(#mask-2)" points="115.352008 45.1277949 115.352008 54 114 54 114 43 115.385473 43 121.645761 51.6916923 121.645761 43 123 43 123 54 121.694844 54"></polygon>
                <path d="M131.007482,50.3378462 L135.973707,50.3378462 L133.5,44.2207179 L131.007482,50.3378462 Z M136.404019,51.5585641 L130.595981,51.5585641 L129.582514,54 L128,54 L132.606456,43 L134.377084,43 L139,54 L137.419838,54 L136.404019,51.5585641 Z" id="Fill-20" fill="#FEFEFE" mask="url(#mask-2)"></path>
                <path d="M148.66938,43 C150.618725,43 151.973315,43.9027915 152.950249,45.1714512 L151.860244,45.8818056 C151.165988,44.9457533 149.99005,44.28529 148.66938,44.28529 C146.256445,44.28529 144.422433,46.2286676 144.422433,48.989309 C144.422433,51.7333201 146.256445,53.71471 148.66938,53.71471 C149.99005,53.71471 151.082316,53.0376163 151.627318,52.4626807 L151.627318,50.1011681 L147.841701,50.1011681 L147.841701,48.8182538 L153,48.8182538 L153,53.0019798 C151.973315,54.1993665 150.469471,55 148.66938,55 C145.528268,55 143,52.5862206 143,48.989309 C143,45.3971491 145.528268,43 148.66938,43" id="Fill-21" fill="#FEFEFE" mask="url(#mask-2)"></path>
                <polygon id="Fill-22" fill="#FEFEFE" mask="url(#mask-2)" points="159 43 166 43 166 44.2207179 160.328115 44.2207179 160.328115 47.7655385 165.888228 47.7655385 165.888228 48.9862564 160.328115 48.9862564 160.328115 52.7792821 166 52.7792821 166 54 159 54"></polygon>
                <polygon id="Fill-23" fill="#FEFEFE" mask="url(#mask-2)" points="181.603101 44.8457436 177.778919 54 177.204946 54 173.396899 44.8457436 173.396899 54 172 54 172 43 174.005448 43 177.49078 51.3780513 180.996857 43 183 43 183 54 181.603101 54"></polygon>
                <polygon id="Fill-24" fill="#FEFEFE" mask="url(#mask-2)" points="189 43 196 43 196 44.2207179 190.328115 44.2207179 190.328115 47.7655385 195.888228 47.7655385 195.888228 48.9862564 190.328115 48.9862564 190.328115 52.7792821 196 52.7792821 196 54 189 54"></polygon>
                <polygon id="Fill-25" fill="#FEFEFE" mask="url(#mask-2)" points="203.352008 45.1277949 203.352008 54 202 54 202 43 203.385473 43 209.645761 51.6916923 209.645761 43 211 43 211 54 209.694844 54"></polygon>
                <polygon id="Fill-26" fill="#FEFEFE" mask="url(#mask-2)" points="220.752839 44.2207179 217 44.2207179 217 43 226 43 226 44.2207179 222.230124 44.2207179 222.230124 54 220.752839 54"></polygon>
                <path d="M44.3301115,52 L24.6721933,52 C21.5399257,51.9953107 19.0023048,49.4114889 19,46.2321219 L19,33.9249707 C19,32.8604924 19.8481784,32 20.8899628,32 C21.934052,32 22.7799257,32.8604924 22.7799257,33.9249707 L22.7799257,46.2321219 C22.7799257,46.7385698 22.9781413,47.2286049 23.3330855,47.5896835 C23.6880297,47.9484174 24.1674349,48.1524033 24.6721933,48.1524033 L44.3301115,48.1524033 C44.8325651,48.1524033 45.3142751,47.9484174 45.6692193,47.5896835 C46.0218587,47.2286049 46.2200743,46.7385698 46.2200743,46.2321219 L46.2200743,33.9249707 C46.2200743,32.8604924 47.0682528,32 48.112342,32 C49.1541264,32 50,32.8604924 50,33.9249707 L50,46.2321219 C49.9976952,49.4114889 47.4600743,51.9953107 44.3301115,52" id="Fill-27" fill="#F1C915" mask="url(#mask-2)"></path>
                <path d="M51.1060295,31.9905032 C50.6621313,31.9928753 50.2321049,31.8339415 49.8922453,31.5421674 L35.9418181,19.5723134 L35.8215956,19.4228682 C35.4655522,19.0575575 34.9823505,18.8511807 34.478341,18.8511807 C33.9743316,18.8511807 33.4911298,19.0575575 33.1373984,19.4228682 L33.014864,19.5391034 L19.0667488,31.5421674 C18.2598712,32.1873914 17.1015742,32.0640397 16.4426628,31.2575097 C15.7860633,30.455724 15.8692942,29.2601619 16.6299324,28.5580064 L30.5202483,16.6403397 C32.7258677,14.4532201 36.2238784,14.4532201 38.4318098,16.6403397 L52.3175018,28.5580064 C52.9301739,29.084623 53.1590589,29.9480846 52.8862465,30.7190324 C52.611122,31.4923523 51.8967233,32.0023639 51.0967816,31.9999918 L51.1060295,31.9905032 Z" id="Fill-28" fill="#F1C915" mask="url(#mask-2)"></path>
                <path d="M34.4760457,68.9999492 C23.4468665,68.9999492 13.0855563,63.7208769 6.59835332,54.7962301 C0.108815109,45.8715833 -1.7196514,34.381013 1.67340331,23.881291 C5.06879322,13.3792322 13.2793784,5.13929909 23.7621194,1.70872001 C34.2425251,-1.72185906 45.7340751,0.0752222112 54.6685743,6.54144312 C55.366801,7.20746154 55.4625444,8.28477554 54.8950893,9.06062857 C54.325299,9.83881851 53.2697857,10.0725092 52.4267763,9.60746475 C44.1437996,3.64367878 33.4415493,2.19245971 23.8718741,5.74222102 C14.3068692,9.28964543 7.13078035,17.3706689 4.73485872,27.2978487 C2.33893709,37.2226915 5.03843553,47.6896968 11.9319644,55.2192102 C18.8278285,62.7440499 29.0139983,66.3428862 39.1020893,64.8168862 C49.1925156,63.293223 57.8608012,56.8386866 62.2229665,47.607905 C66.5851318,38.3794604 66.0713865,27.5806144 60.8522005,18.8078665 C60.3361199,17.8988098 60.6396967,16.742041 61.5410863,16.2092262 C62.4401407,15.6764115 63.6007382,15.963851 64.1471765,16.8542125 C68.3225253,23.8719434 69.8754375,32.1469301 68.5256883,40.2022476 C67.175939,48.2622389 63.0122663,55.5790939 56.7772655,60.8534923 C50.5422648,66.1255539 42.6399268,69.0139706 34.4760457,68.9999492 Z" id="Fill-29" fill="#F1C915" mask="url(#mask-2)"></path>
                <path d="M59.052079,14.9999308 C58.4852297,15.0046339 57.9422981,14.7694773 57.5691822,14.3532502 C57.2367263,13.986406 56.9042704,13.628968 56.5622474,13.2785847 L56.5622474,13.2832878 C56.1986985,12.914092 55.9930064,12.4202632 56.0001817,11.9052703 C56.0049652,11.3902774 56.2202244,10.9011517 56.5981239,10.5413622 C56.9712399,10.1839242 57.4759032,9.98874424 58.0020924,10.0005021 C58.5211062,10.0099083 59.020986,10.2239008 59.3797513,10.5977998 C59.7648262,10.9881597 60.1427257,11.3902774 60.5110581,11.7994498 C61.0205049,12.3685287 61.1424851,13.1774674 60.8267716,13.8641245 C60.5110581,14.5554849 59.8126615,14.9999308 59.0425119,14.9999308 L59.052079,14.9999308 Z" id="Fill-30" fill="#F1C915" mask="url(#mask-2)"></path>
                <path d="M34,29 C30.6907449,29 28,31.7923417 28,35.2633284 C28,38.0745214 29.765237,40.4356406 32.2009029,41.2415317 L34,45 L35.7990971,41.2226804 C38.234763,40.4356406 40,38.0556701 40,35.2444772 C40,31.7923417 37.3092551,29 34,29 M34.738149,38.8969072 L34.738149,39.846539 L33.469526,39.846539 L33.469526,38.8969072 C32.4063205,38.7885125 31.6343115,38.3949926 31.0519187,37.8412371 L32.0790068,36.3025037 C32.5778781,36.8044183 33.3137698,37.1979381 34.2054176,37.1979381 C34.5823928,37.1979381 34.9413093,37.0895434 34.9413093,36.8209131 C34.9413093,36.1587629 31.2731377,36.8397644 31.2731377,34.1181149 C31.2731377,33.0789396 32.0112867,32.0774669 33.469526,31.8818851 L33.469526,30.8969072 L34.738149,30.8969072 L34.738149,31.8818851 C35.5259594,31.9879234 36.227991,32.2918999 36.8126411,32.7938144 L35.7494357,34.2618557 C35.1828442,33.8141384 34.4288939,33.5808542 33.8126411,33.5808542 C33.4176072,33.5808542 33.3137698,33.7057437 33.3137698,33.8848306 C33.3137698,34.530486 36.9841986,33.9743741 36.9841986,36.5334315 C36.96614,37.8765832 36.1241535,38.6989691 34.738149,38.8969072" id="Fill-31" fill="#F1C915" mask="url(#mask-2)"></path>
            </g>
        </g>
    </g>
</svg>