<svg id="logo_centura" data-name="logo centura" xmlns="http://www.w3.org/2000/svg" viewBox="0 0 196.5 29.29" height="45px" width="300px"><defs><style>.cls-1{fill:#606066;}.cls-2{fill:#63666a;}</style></defs><title>logo_centura</title><path class="cls-1" d="M91.88,18v1.81h.28l4.44-.21h.22v-.85h-.68c-1,0-1.69-.23-1.69-1.12v-8h-.28l-4.08.49h-.22v.8h.24c1,0,1.77.16,1.77,1v2.76c0,1.75-1.47,3.46-3,3.46a1.79,1.79,0,0,1-1.33-.45A2.44,2.44,0,0,1,87,16V9.51h-.27s-2.18.23-4.09.23h-.22V11h.24c1,0,1.78.16,1.78,1v4.47a3.15,3.15,0,0,0,.86,2.32,3.8,3.8,0,0,0,2.78,1A4.12,4.12,0,0,0,91.82,18Z" transform="translate(0)"/><path class="cls-1" d="M50.63,17.89h-.08a10.64,10.64,0,0,1-3.27.46A5.56,5.56,0,0,1,41,13.61,5.23,5.23,0,0,1,41,12a6,6,0,0,1,1.25-4.17,4.22,4.22,0,0,1,3.11-1.07c3.14,0,4.13,1.72,4.45,2.75v.17h1.12V9.44L50.68,6.3V6.11h-.19a26.09,26.09,0,0,0-5.13-.57c-5.13,0-7.51,2.13-7.51,6.69a7.46,7.46,0,0,0,2,5.43,8.27,8.27,0,0,0,6.09,2.14,18.13,18.13,0,0,0,4.81-.55h.18V17.8Z" transform="translate(0)"/><path class="cls-1" d="M61,13.93h.26v-.69A3.12,3.12,0,0,0,60.32,11a5.41,5.41,0,0,0-3.87-1.3c-3.79,0-5.63,1.57-5.63,4.8a4.94,4.94,0,0,0,1.34,3.63c1.13,1.13,2.91,1.7,5.32,1.7a11.26,11.26,0,0,0,3.22-.37l.18-.06V18.21l-.34.13a6.07,6.07,0,0,1-5.6-1.15A5,5,0,0,1,53.53,14Zm-2.63-1.16H53.55a2.53,2.53,0,0,1,.68-1.2,2.61,2.61,0,0,1,1.87-.75,2.32,2.32,0,0,1,1.69.58,2.14,2.14,0,0,1,.57,1.37Z" transform="translate(0)"/><path class="cls-1" d="M66.32,11.7V9.63H66L62,10.11h-.22v.8H62c1,0,1.78.16,1.78,1v5.47c0,1-.62,1.24-1.77,1.24h-.24v.84h6.58v-.84h-.25a2.25,2.25,0,0,1-1.49-.36,1.22,1.22,0,0,1-.27-.88V14.92a4.51,4.51,0,0,1,1.39-3,2.78,2.78,0,0,1,1.82-1,1.67,1.67,0,0,1,1.2.31c.32.31.33.93.33,1.94V17.3c0,1-.62,1.24-1.76,1.24H69v.84h6.59v-.84h-.25a2.21,2.21,0,0,1-1.48-.36,1.17,1.17,0,0,1-.28-.88V12.73a3.4,3.4,0,0,0-.68-2.52,3.57,3.57,0,0,0-2.65-.76,4.69,4.69,0,0,0-4,2Z" transform="translate(0)"/><path class="cls-1" d="M83,18.53h-.31l-.72.06a2.63,2.63,0,0,1-1.77-.41,1.47,1.47,0,0,1-.34-1.1V11h3.42V9.83H79.83v-3H78.64v.25c0,1.88-1,2.75-3.27,2.75h-.25V11h2.14v5.53A3.28,3.28,0,0,0,77.85,19c.58.58,1.67.81,3.88.81A6.94,6.94,0,0,0,83,19.69h.23V18.5Z" transform="translate(0)"/><path class="cls-1" d="M101.68,11.21V9.63h-.28l-4.08.49H97.1v.8h.24c1,0,1.77.16,1.77,1v5.47c0,1-.62,1.24-1.76,1.24H96.8v.84h6.89v-.84h-.25a2.22,2.22,0,0,1-1.48-.36,1.17,1.17,0,0,1-.28-.88v-3a3.28,3.28,0,0,1,.86-2.41,1.7,1.7,0,0,1,.93-.52.89.89,0,0,1,.35.14,2.18,2.18,0,0,0,1.16.34,1.71,1.71,0,0,0,1.2-.43,1,1,0,0,0,.32-.76,1,1,0,0,0-.3-.7,1.89,1.89,0,0,0-1.28-.48,3.63,3.63,0,0,0-3.19,1.55Z" transform="translate(0)"/><path class="cls-1" d="M117.54,18.69a3.72,3.72,0,0,1-.67.08,1.11,1.11,0,0,1-.75-.18c-.06-.06-.14-.18-.14-.52v-5a3.28,3.28,0,0,0-.78-2.4c-.71-.71-1.9-1-3.76-1s-4.65.69-4.65,2.22a1,1,0,0,0,.31.72,1.73,1.73,0,0,0,1.21.43,1.7,1.7,0,0,0,1.16-.43,1.24,1.24,0,0,0,.34-.86.79.79,0,0,1,.17-.59,2.12,2.12,0,0,1,1.43-.33,2.06,2.06,0,0,1,1.51.47,3.09,3.09,0,0,1,.5,2.17V14h-.35c-2.32.13-6.64.37-6.64,3.26a2.11,2.11,0,0,0,.66,1.53,3.92,3.92,0,0,0,2.77,1,4.68,4.68,0,0,0,3.75-1.46h.07v.18c0,1.09,1.12,1.29,2,1.29a9.61,9.61,0,0,0,2-.19h.21v-.92Zm-4.12-3.42v.8a2.46,2.46,0,0,1-2.54,2.37h0a1.58,1.58,0,0,1-1.12-.47,1.35,1.35,0,0,1-.43-1c0-1.47,1.58-1.76,3-1.81Z" transform="translate(0)"/><path class="cls-2" d="M150.49,13.93h.25v-.69a3.13,3.13,0,0,0-.91-2.28A5.41,5.41,0,0,0,146,9.66c-3.79,0-5.63,1.57-5.63,4.8a4.89,4.89,0,0,0,1.35,3.63c1.12,1.12,2.91,1.69,5.31,1.69a11.26,11.26,0,0,0,3.22-.37h.18V18.22l-.33.12a5.3,5.3,0,0,1-1.77.25,5.2,5.2,0,0,1-3.84-1.4A5,5,0,0,1,143,14Zm-2.63-1.16h-4.8a2.55,2.55,0,0,1,2.56-1.94,2.29,2.29,0,0,1,1.68.58,2.09,2.09,0,0,1,.57,1.36Z" transform="translate(0)"/><path class="cls-2" d="M177.05,18.75h-.32q-.36,0-.72,0a2.63,2.63,0,0,1-1.77-.41,1.56,1.56,0,0,1-.34-1.1V11h3.42V9.83H173.9v-3h-1.19v.25c0,1.88-1,2.75-3.27,2.75h-.25V11h2.13v5.53a3.24,3.24,0,0,0,.59,2.43c.58.58,1.67.76,3.87.76.43,0,.87-.06,1.3-.1h.22v-.87Z" transform="translate(0)"/><path class="cls-2" d="M162.84,18.74a3.75,3.75,0,0,1-.67,0,1,1,0,0,1-.75-.23c-.06-.06-.14-.18-.14-.51V13.1a3.24,3.24,0,0,0-.79-2.4c-.71-.71-1.9-1-3.76-1s-4.64.69-4.64,2.21a1,1,0,0,0,.3.72,1.82,1.82,0,0,0,2.38,0,1.17,1.17,0,0,0,.33-.85.79.79,0,0,1,.18-.59,2.12,2.12,0,0,1,1.43-.33,2.06,2.06,0,0,1,1.51.47,3.14,3.14,0,0,1,.49,2.17V14h-.35c-2.32.13-6.63.37-6.63,3.26a2.14,2.14,0,0,0,.65,1.53,4,4,0,0,0,2.77,1,4.68,4.68,0,0,0,3.75-1.45H159v.17c0,1.1,1.12,1.29,2,1.29a9.6,9.6,0,0,0,2-.18h.2v-.8Zm-4.13-3.47v.79a2.46,2.46,0,0,1-2.54,2.38h0A1.61,1.61,0,0,1,155,18a1.4,1.4,0,0,1-.42-1c0-1.48,2.69-1.76,4.12-1.81Z" transform="translate(0)"/><path class="cls-2" d="M123.24,19.59h7.21v-.91h-.24c-.89,0-1.46-.06-1.76-.35a1.43,1.43,0,0,1-.3-1V13.12h7v4.21c0,1.19-.52,1.39-2.06,1.39h-.25v.91h7.48v-.91h-.25c-.89,0-1.46-.06-1.76-.35a1.43,1.43,0,0,1-.3-1V8a1.43,1.43,0,0,1,.3-1c.3-.3.87-.36,1.76-.36h.25V5.73h-7.47v.91h.25c.88,0,1.45.06,1.75.36a1.39,1.39,0,0,1,.31,1v3.77h-7V8a1.43,1.43,0,0,1,.3-1c.3-.3.87-.36,1.76-.36h.24V5.73H123v.91h.25c.88,0,1.44.06,1.75.36a1.43,1.43,0,0,1,.3,1v9.26c0,1.19-.51,1.39-2,1.39h-.25v.91Z" transform="translate(0)"/><path class="cls-2" d="M163,19.59h6.31v-.84h-.25a2.25,2.25,0,0,1-1.49-.36,1.27,1.27,0,0,1-.28-.88V5.12H167l-4.09.49h-.22v.8h.3c1,.07,1.72.2,1.72,1v10c0,1-.62,1.24-1.77,1.24h-.25v.84Z" transform="translate(0)"/><path class="cls-2" d="M181.32,11.91V5.12H181L177,5.61h-.22v.8h.3c.94.07,1.71.2,1.71,1v10c0,1-.62,1.24-1.76,1.24h-.25v.84h6.58v-.84h-.25a2.25,2.25,0,0,1-1.49-.36,1.22,1.22,0,0,1-.27-.88V15a4.62,4.62,0,0,1,1.4-3,2.82,2.82,0,0,1,1.82-.94,1.74,1.74,0,0,1,1.19.3c.31.32.33,1,.33,2v4.13c0,1-.62,1.24-1.76,1.24H184v.84h6.59V18.7h-.25a2.22,2.22,0,0,1-1.48-.36,1.17,1.17,0,0,1-.28-.88V12.89a3.47,3.47,0,0,0-.68-2.53,3.54,3.54,0,0,0-2.62-.75,4.11,4.11,0,0,0-4,2.26Z" transform="translate(0)"/><path class="cls-1" d="M30.69,15.17c-1.53.53-6.52-2-7.55-2.4s-2-.66-5.41-.28c-.35.06-.73-.81-.89-1a7.25,7.25,0,0,0-1.5-1.32,7.2,7.2,0,0,0-1.49,1.32c-.17.2-.55,1.07-.9,1-3.37-.38-4.38-.1-5.41.28s-6,2.93-7.54,2.4V9.81H10.2V0H20.49V9.81H30.68v5.36Z" transform="translate(0)"/><path class="cls-1" d="M26.64,16c-.72-.28-2.21-.78-3.74-1.35-3.43-1.66-3.63-1.25-5-1.07s-1.22-.12-1.41-.5a4.09,4.09,0,0,0-1.17-1.21h0a3.89,3.89,0,0,0-1.18,1.21c-.19.38-.07.68-1.4.5s-1.54-.59-5,1.07c-1.53.57-3,1.07-3.74,1.35a9.89,9.89,0,0,1-4,.56v3H10.2v9.73H20.49V19.56h10.2v-3a9.89,9.89,0,0,1-4-.56" transform="translate(0)"/><path class="cls-2" d="M192.25,17.32a1.95,1.95,0,1,1,0,.11v-.11m1.93,2.36a2.36,2.36,0,1,0-.08,0h.08m-.5-2.17h.48l.72,1.18h.46l-.78-1.2a.71.71,0,0,0,.71-.71v0c0-.54-.32-.78-1-.78h-1v2.73h.41Zm0-.35v-.85h.56c.29,0,.6.06.6.4s-.31.45-.66.45Z" transform="translate(0)"/></svg>
